<svg xmlns="http://www.w3.org/2000/svg" width="512" height="512" viewBox="0 0 512.352 512.352"><path d="M392.324 433.946c.458-.346.908-.691 1.359-1.047 6.941-5.471 17.001-4.278 22.47 2.663 5.469 6.94 4.277 17.001-2.664 22.47-19.88 15.668-37.484-11.77-21.165-24.086z" fill="#303030" data-original="#000000" xmlns="http://www.w3.org/2000/svg"/><path d="M2.334 223.219C20.47 82.902 148.699-15.993 289.036 2.145c99.933 12.917 180.407 82.289 210.556 174.297 26.831 81.809 10.774 174.265-46.2 242.92-5.643 6.801-15.729 7.739-22.53 2.095-6.8-5.643-7.738-15.73-2.095-22.53 49.823-60.038 63.881-140.973 40.417-212.516-26.755-81.651-99.077-141.521-184.25-152.529C162.437 18.036 49.902 104.825 34.07 227.321c-22.772 176.19 158.113 305.001 315.823 232.223 8.023-3.702 17.529-.2 21.232 7.823s.2 17.529-7.824 21.231C182.379 572.095-23.617 423.996 2.334 223.219z" fill="#303030" data-original="#000000" xmlns="http://www.w3.org/2000/svg"/><path d="M253.3 290.113L230.14 234.2c-11.963-28.88-45.223-39.983-70.775-27.981-7.999 3.759-17.528.32-21.285-7.679-3.757-7.998-.32-17.527 7.678-21.284 41.884-19.677 94.917-1.242 113.946 44.698l23.16 55.912c11.918 28.776 45.241 40.144 71.011 27.869 7.979-3.798 17.525-.41 21.325 7.567 3.799 7.979.411 17.525-7.567 21.324-42.186 20.092-95.331 1.361-114.333-44.513zm-42.882 15.584c-30.109 15.727-68.007.983-78.934-31.8 4.558 4.698 7.97 9.312 15.805 9.312 14.03 0 21.331-16.989 11.483-27.141l-31.511-32.482c-6.144-6.333-16.283-6.496-22.625-.344l-32.482 31.511c-6.343 6.153-6.496 16.282-.343 22.625 6.152 6.343 16.282 6.495 22.625.344l3.975-3.856c11.878 57.791 75.669 86.917 126.824 60.195 7.833-4.091 10.865-13.757 6.774-21.589-4.092-7.833-13.757-10.866-21.591-6.775zm231.087-71.008c-6.152-6.343-16.282-6.495-22.625-.344l-3.975 3.856c-11.871-57.758-75.598-86.951-126.823-60.195-7.833 4.091-10.865 13.757-6.774 21.589 4.091 7.833 13.756 10.864 21.59 6.774 30.108-15.726 68.005-.983 78.934 31.799l-4.318-4.451c-6.153-6.341-16.282-6.496-22.625-.344-6.342 6.153-6.497 16.282-.344 22.625l31.51 32.482c6.158 6.348 16.296 6.483 22.625.344l32.482-31.511c6.342-6.153 6.496-16.282.343-22.624z" fill="#303030" data-original="#000000" xmlns="http://www.w3.org/2000/svg"/></svg>